<svg fill="currentColor" id="Layer_1" data-name="Layer 1" xmlns="http://www.w3.org/2000/svg" viewBox="0 0 841.89 400"><defs><style>.cls-1{fill:#231f20;}.cls-2{fill:#00aeef;}</style></defs><title>Artboard 1</title><path class="cls-1" d="M191.86,110.55c-11.31-19.61-24.88-30.92-49-30.92-25.26,0-47.13,18.1-47.13,44.11,0,24.51,25.26,35.82,44.49,44.49l18.85,8.3c36.95,16.21,68.24,34.68,68.24,79.92,0,49.77-40,87.85-89.35,87.85-45.62,0-79.55-29.41-88.6-73.52l30.91-8.67c4.15,29,26.4,52.78,56.93,52.78s58.44-23.37,58.44-55.42c0-33.18-26-44.49-52.4-56.55l-17.35-7.54c-33.17-15.08-61.83-32-61.83-72.77,0-44.11,37.33-72.39,79.55-72.39,31.67,0,58.44,16.22,73.52,44.12Z"/><path class="cls-2" d="M388.46,314.69C324,314.69,272,261.15,272,197.06c0-64.47,51.27-117.63,116.5-117.63a115.28,115.28,0,0,1,62,17.95V63.72a147.32,147.32,0,0,0-62-13.7c-81.06,0-148.17,66-148.17,147.42,0,81.81,67.11,146.66,148.17,146.66,72.85,0,134.41-52.4,146.13-122.4H502.33C491,274.3,444.45,314.69,388.46,314.69Z"/><rect class="cls-2" x="389.34" y="178.97" width="155.83" height="30.16"/><path class="cls-1" d="M795.76,117.66C773.14,94.28,741.84,80,709,80c-63.33,0-114.61,55-114.61,117.63S646.08,315.21,709.8,315.21c32,0,63.34-15.08,86-37.7v39.21c-24.51,17.72-54.67,27.9-84.83,27.9-80.31,0-148.17-65.22-148.17-145.9,0-81.44,66.73-148.17,148.17-148.17,31.67,0,59.57,9.05,84.83,27.9Z"/></svg>