<svg fill="currentColor" viewBox="0 0 140 58" version="1.1" xmlns="http://www.w3.org/2000/svg"><g id="Symbols" stroke="none" stroke-width="1" fill="none" fill-rule="evenodd"><g id="topbar" transform="translate(-70 -16)" fill-rule="nonzero"><g id="logo" transform="translate(70 16)"><path d="M98.407 52.658a6.316 6.316 0 004.327 1.68 6.027 6.027 0 006.152-5.882 5.66 5.66 0 00-1.854-4.143 6.423 6.423 0 00-8.692 0 5.63 5.63 0 000 8.306l.067.039zm4.317-7.138a3.448 3.448 0 012.338.879 2.753 2.753 0 010 4.143 3.535 3.535 0 01-4.694 0 2.8 2.8 0 01-.966-2.066 3.139 3.139 0 013.322-2.956z" id="Shape" fill="#0065B0"/><path d="M125.45 44.323a1.449 1.449 0 00-2.019.328 25.69 25.69 0 01-20.793 10.402h-.136a25.73 25.73 0 01-20.659-10.045 1.449 1.449 0 00-2.018-.3 1.44 1.44 0 00-.3 2.02 28.627 28.627 0 0022.968 11.222h.154a28.588 28.588 0 0023.18-11.59 1.44 1.44 0 00-.377-2.037z" id="Path" fill="#0065B0"/><path d="M45.558 5.294a6.317 6.317 0 00-4.327-1.68 6.327 6.327 0 00-4.346 1.718 5.63 5.63 0 000 8.306 6.317 6.317 0 004.326 1.681 6.327 6.327 0 004.347-1.72 5.63 5.63 0 000-8.305zm-6.665 6.297a2.8 2.8 0 01-.965-2.067 3.139 3.139 0 013.274-2.984 3.448 3.448 0 012.337.879 2.8 2.8 0 01.966 2.066 3.139 3.139 0 01-3.274 2.985 3.429 3.429 0 01-2.338-.879z" id="Shape" fill="#DC2215"/><path d="M64.449 11.214A28.627 28.627 0 0041.472.001h-.154a28.588 28.588 0 00-23.18 11.59 1.44 1.44 0 001.178 2.308 1.449 1.449 0 001.169-.599A25.69 25.69 0 0141.337 2.9h.135a25.72 25.72 0 0120.66 10.044 1.449 1.449 0 002.317-1.72v-.009z" id="Path" fill="#DC2215"/><path d="M33.804 29.845a10.209 10.209 0 01-.541 3.39 7.37 7.37 0 01-1.555 2.627 7.002 7.002 0 01-2.444 1.69 8.161 8.161 0 01-3.187.599 8.074 8.074 0 01-3.158-.599 6.993 6.993 0 01-2.444-1.69 7.727 7.727 0 01-1.584-2.627 9.716 9.716 0 01-.57-3.39 9.378 9.378 0 01.58-3.38 7.659 7.659 0 011.613-2.598 7.263 7.263 0 012.415-1.652 7.92 7.92 0 013.148-.628 8.007 8.007 0 013.13.599c.922.38 1.754.949 2.443 1.67a7.601 7.601 0 011.584 2.599 9.6 9.6 0 01.57 3.39zm-4.55 0a5.592 5.592 0 00-.82-3.245 2.695 2.695 0 00-2.357-1.179 2.733 2.733 0 00-2.366 1.179 5.515 5.515 0 00-.84 3.245 5.66 5.66 0 00.84 3.274 2.714 2.714 0 002.366 1.207c.94.039 1.831-.42 2.347-1.207a5.736 5.736 0 00.782-3.274h.049z" id="Shape" fill="#0065B0"/><path d="M46.697 25.953c-.399-.097-.869-.2-1.41-.31a8.692 8.692 0 00-1.738-.164 8.142 8.142 0 00-.966.078c-.3.032-.597.087-.889.164v12.015h-4.49V22.843c.928-.315 1.872-.58 2.83-.792a16.361 16.361 0 013.64-.377h.87c.34 0 .679.039 1.014.116.34.052.679.113 1.014.183.297.057.588.14.869.252l-.744 3.728z" id="Path" fill="#0065B0"/><path d="M63.145 35.736c0 2.576-.644 4.485-1.931 5.728-1.288 1.242-3.31 1.864-6.066 1.864-.971.001-1.94-.083-2.897-.251a17.974 17.974 0 01-2.666-.676l.782-3.738c.714.283 1.45.502 2.202.657.863.168 1.74.25 2.618.241.981.1 1.96-.203 2.714-.84a3.01 3.01 0 00.792-2.154v-.57a7.157 7.157 0 01-1.488.493 7.89 7.89 0 01-1.67.212 6.384 6.384 0 01-5.003-1.931 7.775 7.775 0 01-1.739-5.4 8.828 8.828 0 01.541-3.158 6.76 6.76 0 011.574-2.433 7.031 7.031 0 012.53-1.565 9.726 9.726 0 013.381-.55c.54 0 1.095.025 1.661.077.567.051 1.13.116 1.69.193s1.095.17 1.604.28c.508.11.962.225 1.362.348l.01 13.173zm-9.793-6.374c0 2.492 1.007 3.738 3.023 3.738.435.001.867-.06 1.284-.184.353-.1.693-.24 1.014-.415v-7.109c-.218-.038-.48-.074-.782-.106a5.722 5.722 0 00-1.053 0 3.071 3.071 0 00-2.636 1.169 4.83 4.83 0 00-.85 2.907z" id="Shape" fill="#0065B0"/><path d="M73.306 34.181a6.76 6.76 0 001.632-.164c.37-.081.72-.232 1.033-.444.243-.168.43-.403.541-.676.105-.278.157-.573.155-.87a2 2 0 00-.966-1.69 13.734 13.734 0 00-3.265-1.448 25.43 25.43 0 01-2.038-.821 7.495 7.495 0 01-1.825-1.169 5.563 5.563 0 01-1.313-1.7 5.322 5.322 0 01-.512-2.434 6.027 6.027 0 01.54-2.588c.357-.75.88-1.41 1.527-1.932a6.993 6.993 0 012.395-1.236 10.788 10.788 0 013.158-.473 12.72 12.72 0 016.143 1.439l-1.353 3.68a12.836 12.836 0 00-1.931-.792 8.393 8.393 0 00-2.56-.348 4.704 4.704 0 00-2.414.464c-.505.29-.806.837-.782 1.42-.013.342.081.68.27.965.205.284.464.523.763.705.36.226.742.417 1.14.57.431.168.904.341 1.42.522 1.075.399 2.015.792 2.82 1.178a7.533 7.533 0 011.99 1.362c.55.502.979 1.123 1.255 1.816a7.33 7.33 0 01.386 2.54 5.39 5.39 0 01-2.038 4.5c-1.378 1.063-3.435 1.594-6.171 1.594-.83.006-1.66-.05-2.483-.164a16.148 16.148 0 01-1.931-.406 11.01 11.01 0 01-2.501-1.024l1.284-3.718a11.762 11.762 0 005.631 1.342z" id="Path" fill="#DC2215"/><path d="M90.787 21.587a10.37 10.37 0 013.293.444c.8.25 1.526.69 2.115 1.285.536.573.921 1.27 1.12 2.028.229.867.34 1.76.33 2.656v9.272c-.645.142-1.533.306-2.666.493a25.71 25.71 0 01-4.134.28c-.931.008-1.86-.083-2.772-.27a6.017 6.017 0 01-2.115-.86 4.037 4.037 0 01-1.381-1.604 5.505 5.505 0 01-.483-2.424 4.578 4.578 0 01.55-2.327 4.26 4.26 0 011.488-1.526 6.76 6.76 0 012.124-.821c.817-.17 1.649-.255 2.483-.251.516-.003 1.032.023 1.545.077.368.035.733.1 1.091.193v-.415a2.463 2.463 0 00-.656-1.835 3.342 3.342 0 00-2.396-.686c-.753 0-1.505.054-2.25.164a9.658 9.658 0 00-1.932.464l-.57-3.583a16.801 16.801 0 012.24-.493c.458-.07.941-.132 1.45-.184a15.137 15.137 0 011.526-.077zm.357 13.039H92.4c.323-.011.646-.04.966-.087v-3.38a8.551 8.551 0 00-.812-.116 9.073 9.073 0 00-.965-.058 8.888 8.888 0 00-1.188.077 3.11 3.11 0 00-.966.28 1.661 1.661 0 00-.657.57c-.17.268-.253.581-.241.898-.06.578.213 1.14.705 1.449.595.283 1.254.41 1.912.367h-.01zm16.216-13.039c1.115-.03 2.227.12 3.294.444.8.25 1.525.69 2.115 1.285.536.573.92 1.27 1.12 2.028.228.867.339 1.76.329 2.656v9.272c-.644.142-1.533.306-2.666.493a25.71 25.71 0 01-4.134.28 13.24 13.24 0 01-2.772-.27 6.017 6.017 0 01-2.144-.88 4.037 4.037 0 01-1.38-1.603 5.505 5.505 0 01-.484-2.424 4.578 4.578 0 01.55-2.328 4.26 4.26 0 011.488-1.526 6.76 6.76 0 012.125-.82 11.96 11.96 0 012.482-.252c.516-.002 1.032.024 1.545.078.369.035.734.1 1.092.193v-.416a2.463 2.463 0 00-.686-1.825 3.342 3.342 0 00-2.395-.686c-.753 0-1.505.054-2.25.164a9.658 9.658 0 00-1.932.464l-.57-3.583a16.801 16.801 0 012.24-.493c.458-.07.94-.132 1.45-.183a14.078 14.078 0 011.583-.068zm.358 13.039h1.255c.324-.011.646-.04.966-.087v-3.38a8.551 8.551 0 00-.811-.116 9.073 9.073 0 00-.966-.058 8.91 8.91 0 00-1.188.077 3.11 3.11 0 00-.966.28 1.661 1.661 0 00-.657.57 1.572 1.572 0 00-.241.898c-.06.578.213 1.14.705 1.449a3.863 3.863 0 001.903.367z" id="Shape" fill="#DC2215"/><path d="M139.773 25.924a5.602 5.602 0 00-.966-2.27 4.675 4.675 0 00-1.931-1.478 7.89 7.89 0 00-3.1-.521 8.354 8.354 0 00-4.492 1.468 6.259 6.259 0 00-1.796-1.043 7.446 7.446 0 00-2.772-.435c-.58 0-1.169.026-1.767.077a24.48 24.48 0 00-1.748.213c-.567.09-1.105.19-1.613.3-.51.109-.953.212-1.333.308v15.193h4.462v-12.14l.87-.107h.868a2.057 2.057 0 011.932.898c.442.954.631 2.005.55 3.052v8.345h4.414v-8.625c0-.58-.019-1.123-.058-1.632a6.828 6.828 0 00-.27-1.449c.33-.2.688-.35 1.062-.444.314-.1.638-.162.966-.184a2.057 2.057 0 011.932.899 6.13 6.13 0 01.55 3.052v5.795c0 1.38 1.99 2.501 4.462 2.55V28.86c.025-.984-.05-1.968-.222-2.936z" id="Path" fill="#E32013"/><path d="M5.795 33.805a68.243 68.243 0 012.453-3.767 134.592 134.592 0 012.791-3.863 90.911 90.911 0 012.724-3.42c.876-1.042 1.62-1.866 2.23-2.472V17.02H.484c0 2.173 1.169 3.921 2.55 3.921h6.76a83.482 83.482 0 00-2.53 3.207c-.908 1.204-1.8 2.42-2.675 3.65a243.07 243.07 0 00-2.53 3.767A48.958 48.958 0 000 34.954v2.782h16.322v-3.931H5.795z" id="Path" fill="#0065B0"/></g></g></g></svg>