<svg version="1.1" viewBox="0 0 306.91 122.84" xmlns="http://www.w3.org/2000/svg"><g transform="matrix(1.3333 0 0 -1.3333 0 122.84)"><g transform="scale(.1)"><path d="m552.76 184.25v737.01h-368.5v-737.01h368.5" fill="#0f578e"/><path d="m386.81 433.67c0-1.602.984-3.945 3.125-3.273.105.05.203.019.179-.086-.328-1.789-3.511-3.418-4.968-1.309-1.29-2.727-.989-5.273 1.796-6.777.153-.09.184-.285.008-.41-1.66-1.211-4.25-.938-5.457 1.386-2.281-1.719-1.949-5.39-.562-6.64 0-.02-6.328-3.762-12.075-1.086-3.804 1.828-6.906 4.16-11.82 3.781.684 6.883 4.125 8.699 10.453 9.687 5.063.821 5.703 3.145 4.985 4.903-1.719.457-4.868-1.125-4.868-1.125-.562.949.254 1.933.254 1.933-.308.383-.464 1.653-.464 1.653 3.535 0 4.16.781 4.16.781.629 3.68-3.121 4.07-5.981 2.09-1.328 1.172-1.109 2.734-1.109 2.734-.399.195-.649.809-.649 1.074 0 .868 4.196 3.231 5.278 3.504.269 1.223 1.797 2.91 6.25 2.512.531 1.18-.332 5.488-.879 6.648-.18.352.078.547.469.305 1.554-.988 3.101-4.621 4.16-4.687 0 0 5.008 2.625 5.254 2.48.238-.137.945-5.734.945-5.734.664-.821 4.531-.02 6.223-.742.425-.184.41-.497.027-.555-1.266-.215-5.297-1.953-5.961-3.067 2.313-3.468 1.227-8.574 1.227-9.98zm-44.696-2.852c-.375-.519-1.609.02-2.078.235-.109.047-.129 0-.09-.078.297-.664 1.493-2.657 3.258-2.657.801 0 1.969.469 2.301 1.004 0 0 6.918-2.246 10.34-3.191-1.328-1.77-2.156-3.899-2.324-6.211-2.758 1.699-13.797 7.617-13.797 7.617l-3.422-4.68c-.571-.769-3.305 1.223-2.738 2.004l2.613 3.575c-.863.918-2.949.339-3.516.175-.078-.019-.148.02-.078.157.332.703 1.633 2.871 4.883 1.894.012 1.981-2.949 1.348-3.719 1.133-.094-.02-.125.02-.039.105.801.86 3.203 2.805 5.895 1.211l1.168 1.614-2.368 2.488 1.485 2.043 1.66-2.238 12.746 17.453c.312.429 2.836 1.16 3.789 1.367.102-.977.211-3.594-.094-4.023l-12.535-17.61 2.645-.867-1.461-2.051-3.121 1.453zm95.078-91.836c.164.028.188.157.079.235-1.657 1.074-2.946 2.566-2.946 4.207 0 2.93 5.621 6.777 8.309 6.777 1.597 0 2.75-1.914 5.828-1.914 1.598 0 3.457.645 4.996 2.578.113.149.051.266-.133.235-1.277-.203-4.754-1.063-6.375 5.215-1.679 6.535-2.246 11.281.653 13.781 2.453 2.109 13.242 6.199 19.179 8.465.321.129.293.343 0 .41-1.64.461-3.242 1.457-3.457 3.476-.144 1.262.117 2.981 1.543 3.821-2.933 3.172-8.75 5.39-11.816 5.39-11.746 0-21.711-15.918-26.485-15.918-.593 0-1.371.223-2.07 1.239-.156.214-.32.234-.32-.125 0-4.805 2.547-5.235 3.898-5.235.77-.012 1.594.235 2.184.567.156.097.234.027.234-.149 0-.195-.039-.672-.039-1.004 0-5.664 5.918-11.855 5.918-11.855-2.676-2.785-9.363-7.461-11.234-4.973-.797 1.008-4.301 7.317-8.981 2.297-.164-.187-.051-.402.266-.402 2.637 0 4.691-1.797 3.984-4.52-3.797 3.027-9.035 2.539-9.035-4.453 0-.273.274-.332.41-.137 2.5 3.594 6.457 1.16 7.028.645-2.653-.403-7.25-3.516-3.207-9.043.168-.246.328-.188.351 0 .414 3.633 2.625 4.246 4.43 4.246 3.711 0 6.418-3.406 9.25.215 1.019-4.735 6.281-4.285 7.558-4.071zm-129.82 4.071c2.832-3.621 5.543-.215 9.254-.215 1.809 0 4.02-.613 4.434-4.246.019-.188.175-.246.351 0 4.043 5.527-.558 8.64-3.211 9.043.571.515 4.528 2.949 7.031-.645.137-.195.411-.136.411.137 0 6.992-5.243 7.48-9.036 4.453-.71 2.723 1.344 4.52 3.985 4.52.316 0 .43.215.265.402-4.683 5.02-8.191-1.289-8.984-2.297-1.871-2.488-8.558 2.188-11.23 4.973 0 0 5.914 6.191 5.914 11.855 0 .332-.039.809-.039 1.004 0 .176.078.246.238.149.586-.332 1.414-.579 2.176-.567 1.351 0 3.906.43 3.906 5.235 0 .359-.164.339-.32.125-.703-1.016-1.481-1.239-2.078-1.239-4.77 0-14.735 15.918-26.485 15.918-3.062 0-8.875-2.218-11.808-5.39 1.418-.84 1.687-2.559 1.543-3.821-.215-2.019-1.817-3.015-3.458-3.476-.292-.067-.32-.281 0-.41 5.93-2.266 16.727-6.356 19.18-8.465 2.899-2.5 2.332-7.246.653-13.781-1.625-6.278-5.098-5.418-6.375-5.215-.188.031-.25-.086-.133-.235 1.535-1.933 3.394-2.578 4.992-2.578 3.078 0 4.23 1.914 5.828 1.914 2.688 0 8.305-3.847 8.305-6.777 0-1.641-1.285-3.133-2.938-4.207-.109-.078-.09-.207.071-.235 1.285-.214 6.542-.664 7.558 4.071zm55.438 94.66c2.046.516 4.3.273 4.539.195.324-.109.312-.597-.051-.644-4.274-.547-4.469-2.512-7.195-2.512-1.797 0-3.739 1.809-3.008 4.473.094.343.363.351.441.031.274-1.152 1.934-2.402 5.274-1.543zm10.699 7.168c-2.903.176-4.758-.469-4.668-1.399 1.41-1.484 3.285-1.316 4.668 1.399zm-24.422-75.488c-1.613-1.973-3.031-.09-5.148-.09-2 0-2.333-1.668-2.379-2.332-.012-.117-.079-.168-.164-.039-2.258 3.086.265 4.765 1.742 4.988-.215.215-2.438 1.711-3.856-.34-.105-.148-.242-.078-.242.098-.07 3.828 2.969 4.101 4.969 2.422.363 1.445-.574 2.422-2.195 2.5-.196 0-.227.125-.149.215.68.73 1.34 1.062 2.004 1.062 2.133 0 2.402-2.695 3.793-2.695 2.09 0 5.043 2.812 5.328 3.117-.059.156-2.059 5.566-1.66 8.808.019.137-.055.157-.149.098-1.003-.566-3.57-.547-3.57 2.606 0 .254.074.273.219.07 1.121-1.555 2.941.195 3.851 1.219.985 1.093 6.239 8.75 13.254 8.75 1.543-.008 3.536-.848 5.137-1.961-2.422-2.949-.016-5.774 1.777-5.41.211.039.25-.157.051-.227-9.273-3.484-13.418-4.883-13.418-12.645 0-4.054 1.387-6.3 3.766-5.773.18.051.226-.027.101-.164-.859-1.027-1.855-1.367-2.679-1.367-1.926 0-2.274 1.054-3.309 1.054-1.062 0-4.515-2.031-4.515-3.73 0-.645.406-1.516 1.625-2.316.082-.047.035-.118-.032-.125-.777-.149-3.515-.383-4.152 2.207zm-12.527 32.968-3.625.938-.301-.449-4.203 1.843s3.097.02 3.758.032c.351 0 .375.222.191.398-1.715 1.68-3.215 3.145-3.215 3.145s1.711-.633 4.152-1.543c.278-.098.379.109.247.293-1.168 1.73-2.766 4.054-2.766 4.054s3.383-2.265 4.07-2.726c.223-.156.399-.008.305.215-.902 2.238-1.93 4.765-1.93 4.765l3.715-3.504c.172-.156.363-.07.313.164-.36 1.672-1.024 4.766-1.024 4.766l2.723-3.984c.164-.235.367-.164.371.109.015.781.09 4.355.09 4.355s1.144-2.636 1.726-3.984c.117-.273.324-.293.469.059.184.429 1.402 3.367 1.402 3.367l.161-4.531-.606-.118-.762-5.457c5.41 1.27 12.149 10.516 17.317 10.516 6.152 0 8.386-7.207 19.758-3.555 2.867-4.246 3.875-7.937 4.984-13.047 4.383-4.128 10.551-2.753 10.551 1.622 0 5.89-6.422 7.011-6.422 13.156 0 2.742 1.926 6.687 7.168 6.687 2.773 0 6.84-1.191 9.179-1.191 2.778 0 3.372 2.012 3.68 2.844.258.625 1.012.418.942-.071-.094-.574.32-1.375.32-2.695 0-3.887-5.652-4.394-6.359-3.914-.293.203-.5-.109-.293-.273.851-.684.66-3-.348-4.473-.125-.168-.281-.137-.317.019-.601 2.782-3.871 6.219-6.746 6.219-1.058 0-3.164-.613-3.164-3.055 0-3.496 7-6.679 7-13.925 0-7.532-7.461-9.336-14.961-7.461.254-7.129 10.903-11.367 11.157-6.27.011.352.203.137.308-.011 1.582-2.176.864-3.836-1.148-4.676 1.851-.84 2.183-4.582 2.73-6.817.817-3.351 4.371-1.496 4.547-1.398.192.117.262.012.184-.203-1.352-3.489-4.922-2.168-4.922-2.168-1.875-1.321.39-2.5 2.09-3.008.254-.07.238-.254.039-.332-1.258-.461-3.938-1.301-5.239.945-.96-2.324-2.941-2.254-3.71-2.254-1.372 0-2.286-1.406-1.961-3.281.031-.168-.086-.215-.211-.117-3.27 2.168-1.391 4.715-.075 5.351-.226.137-2.476 1.075-3.433-1.562-.074-.207-.203-.215-.277-.02-1.422 3.797 1.691 4.903 3.937 3.946-.156.535-1.332 2.39-4.285 1.797-.133-.039-.223.019-.141.203.485 1.164 1.949 2.883 4.629 1.144 1.367-.851 3.735.391 3.945.496-4.761 9.485-14.019 1.543-16.089 8.977-.039.156-.227.293-.356-.117-.492-1.582-4.527-1.692-5.269 1.426-.063.242.031.273.187.117.594-.598 1.859-1.133 3.531 1.277 1.106 1.594 1.258 3.723 1.258 5.168 0 5.77-5.762 15.449-14.742 15.449-5.68 0-11.785-2.218-16.316-5.519l4.218-.965c-.398-4.27-4.5-6.75-8.269-5.703l.652 4.883c-.652-.207-2.308-.793-3.191-2.051-.067-.098-.196-.071-.227.039-.769 2.762 1.516 4.16 2.227 4.519.078.051.074.11-.074.11-2.043.078-3.196-1.426-3.52-1.946-.055-.078-.141-.058-.164.012-.168.508-.527 1.934.43 2.949zm31.949-89.511c35.816 0 72.191-1.875 76.945-7.278.383-.429.539.012.539.332l.008 18.985c0 5.539-37.527 8.761-77.492 8.761-39.973 0-77.496-3.222-77.496-8.761l.008-18.985c0-.32.156-.761.539-.332 4.754 5.403 41.129 7.278 76.949 7.278zm58.441-8.477v-8.234c0-13.992 23.047-.867 45.293.547 18.465 1.211 23.621-3.504 23.621-3.504l-3.386 18.672c-.18 1.015-4.172 3.886-16.911 3.886-15.316 0-23.003-2.929-25.804-3.918v-9.804c0-2.235-1.125-3.328-2.824-4.012 0 .82-2.559 6.367-19.989 6.367zm-136.88-6.367c-1.699.684-2.824 1.777-2.824 4.012v9.804c-2.809.989-10.488 3.918-25.809 3.918-12.734 0-16.722-2.871-16.91-3.886l-3.383-18.672s5.157 4.715 23.622 3.504c22.246-1.414 45.293-14.539 45.293-.547v8.234c-17.434 0-19.989-5.547-19.989-6.367zm42.41 161.77c-5.343-1.172-9.183-2.274-10.902-2.801.09 2.363.984 4.551 3.09 5.039.269.066.34.43.09.594-4.766 3.164-7.321-2.899-7.395-3.094-1.687.125-4.262-.403-4.262-2.688 0-6.824-15.617-10.613-19.234-11.172 6.379-2.46 9.035-10.496 9.035-10.496 4.629 4.629 10.043 8.711 11.235 8.711 1.23 0 1.699-1.543 1.797-2.461.031-.304.312-.402.503-.136 2.422 3.613 1.258 4.433 1.063 5.496-.156.84.09 4.004 3.625 3.633v-45.555l-1.816-.363c-.836-.145-7.497 5.519-15.125 10.793-7.625 5.273-11.723 2.117-20.422-2.59-11.379-6.16-22.891-.575-22.891-.575-9.816-7.011-13.156-27.285-13.156-27.285-1.953-.84-5.196-1.718-8.266-1.718-7.488 0-8.867 4.531-8.867 7.246 0 11.562 14.477 16.523 14.477 27.918 0 2.765-1.27 14.015-15.184 14.015-1.781 0-12.402.02-12.453.02-5.207 0-6.512 3.75-7.235 5.183-.281.559-.812.235-.613-.203.402-.957-.598-2.414-.598-5.304 0-4.629 2.719-7.411 7.782-7.411 2.304 0 4.472.653 5.176 1.075.468.273.718-.176.5-.43-2.208-2.578-2.383-7.402-1.477-8.574.215-.285.484-.207.539.019 1.219 4.891 5.801 9.512 11.969 9.512 7.547 0 7.508-6.418 7.508-7.969 0-9.277-16.293-16.086-16.293-28.84 0-12.937 13.668-15.711 21.586-13.66-.465-12.949-15.29-17.363-15.739-8.097-.035.441-.351.546-.593-.039-1.875-4.579-1.133-8.602 4.636-9.883.391-.098.199-.313-.156-.555-5.711-3.633-2.617-17.91-2.332-22.109.43-6.055-5.594-5.332-6.086-5.157-.246.098-.488-.031-.105-.507 4.265-5.235 9.539-.45 9.539-.45 3.984-1.25 1.515-4.648-1.141-6.425-.414-.286-.383-.559.066-.586.598-.039 6.762-.559 7.864 4.355 2.726-3.262 6.742-2.07 7.586-1.641 1.187.606 6.964 2.704 7.539-3.789.035-.468.308-.168.5.079 4.363 5.488-.313 8.875-2.91 9.277.207.301 3.71 3.203 6.855-.82.211-.274.41-.332.449.214.36 6.961-5.304 7.598-8.972 4.571-.168.711-1.391 4.629 4.148 4.492.133 0 .395.195.117.469-4.297 4.539-7.832.41-8.652-.578-1.914-2.254-6.68-1.356-7.121-1.297 1.496 24.199 22.812 15.625 25.742 27.382.137.625.418.391.476.165.805-2.872 8.04-3.27 9.368 2.382.074.352.031.625-.223.364-6.172-6.164-20.07 13.105-1.105 28.757 16.191 13.352 30.703 5.911 36.222 1.516.293-1.934-.859-2.559-1.597-2.793-.262-.078-.348-.324.074-.488 1.543-.586 3.715-.403 4.734 1.043 3.477-2.43.5-5.488-.906-6.336-.359-.227-.199-.461.098-.52 3.191-.574 5.82 2.688 5.945 4.563l.539-.305v-13.75c0-19.578 22.586-22.293 47.379-38.894 24.785 16.601 47.371 19.316 47.371 38.894v13.75l.543.305c.125-1.875 2.754-5.137 5.945-4.563.301.059.449.293.098.52-1.406.848-4.383 3.906-.906 6.336 1.015-1.446 3.191-1.629 4.734-1.043.418.164.34.41.07.488-.734.234-1.886.859-1.593 2.793 5.519 4.395 20.031 11.836 36.222-1.516 18.965-15.652 5.063-34.921-1.105-28.757-.258.261-.297-.012-.223-.364 1.328-5.652 8.563-5.254 9.363-2.382.059.226.344.46.481-.165 2.93-11.757 24.246-3.183 25.742-27.382-.441-.059-5.207-.957-7.121 1.297-.82.988-4.356 5.117-8.652.578-.282-.274-.02-.469.117-.469 5.539.137 4.316-3.781 4.14-4.492-3.66 3.027-9.332 2.39-8.964-4.571.035-.546.242-.488.449-.214 3.144 4.023 6.64 1.121 6.855.82-2.597-.402-7.273-3.789-2.91-9.277.188-.247.461-.547.5-.079.57 6.493 6.348 4.395 7.539 3.789.844-.429 4.852-1.621 7.586 1.641 1.094-4.914 7.266-4.394 7.863-4.355.446.027.477.3.067.586-2.656 1.777-5.125 5.175-1.141 6.425 0 0 5.274-4.785 9.539.45.375.476.137.605-.105.507-.492-.175-6.52-.898-6.086 5.157.285 4.199 3.379 18.476-2.332 22.109-.364.242-.551.457-.156.555 5.769 1.281 6.511 5.304 4.636 9.883-.242.585-.566.48-.594.039-.449-9.266-15.273-4.852-15.742 8.097 7.918-2.051 21.586.723 21.586 13.66 0 12.754-16.293 19.563-16.293 28.84 0 1.551-.039 7.969 7.508 7.969 6.168 0 10.746-4.621 11.973-9.512.051-.226.324-.304.539-.019.906 1.172.73 5.996-1.477 8.574-.222.254.028.703.5.43.696-.422 2.871-1.075 5.168-1.075 5.067 0 7.785 2.782 7.785 7.411 0 2.89-.996 4.347-.593 5.304.199.438-.34.762-.614.203-.726-1.433-2.031-5.183-7.234-5.183-.051 0-10.668-.02-12.457-.02-13.91 0-15.188-11.25-15.188-14.015 0-11.395 14.481-16.356 14.481-27.918 0-2.715-1.371-7.246-8.867-7.246-3.075 0-6.317.878-8.262 1.718 0 0-3.34 20.274-13.156 27.285 0 0-11.512-5.585-22.891.575-8.699 4.707-12.801 7.863-20.43 2.59-7.625-5.274-14.285-10.938-15.117-10.793l-1.82.363v45.555c3.535.371 3.785-2.793 3.629-3.633-.195-1.063-1.36-1.883 1.062-5.496.188-.266.469-.168.5.136.098.918.567 2.461 1.797 2.461 1.192 0 6.61-4.082 11.238-8.711 0 0 2.657 8.036 9.036 10.496-3.625.559-19.239 4.348-19.239 11.172 0 2.285-2.574 2.813-4.257 2.688-.079.195-2.633 6.258-7.395 3.094-.254-.164-.184-.528.09-.594 2.101-.488 3.004-2.676 3.09-5.039-4.551 1.394-23.938 6.836-46.922 6.836-11.16 0-21.442-1.289-29.617-2.766v-15.789h-6.407v14.52m36.024 14.66c19.64 0 30.726-3.75 30.726-3.75.106 9.922.039 15.457 5.731 14.629-3.11 8.339 10.293 11.609 10.293 22.48 0 7.156-5.063 7.969-6.559 7.969-4.445 0-3.75-2.891-7.531-2.891-.469 0-.957.117-.957-.226 0-1.25 1.062-3.387 2.801-3.387 2.324 0 2.375 2.324 4.097 2.324.746 0 1.821-.605 1.821-2.988 0-4.621-3.028-9.746-6.602-13.711-.82 1.133-1.937 1.836-3.273 1.836-2.117 0-3.973-2.207-3.973-4.934 0-1.004.16-1.738.527-2.586-1.191-.664-2.25-1.047-3.046-1.047-1.61 0-4.043.657-4.043 4.192 0 7.871 10.558 14.805 10.558 24.785 0 4.766-3.183 9.512-9.836 9.512-7.133 0-5.804-6.516-11.976-6.516-.286 0-.508-.086-.508-.34 0-.41 1.07-4.015 4.262-4.015 3.418 0 4.378 5.91 7.402 5.91 1.133 0 2.824-.664 2.824-4.668 0-3.117-1.543-8.145-3.762-12.969-.8.801-1.882 1.387-3.109 1.387-2.645 0-4.547-2.559-4.547-5.617 0-1.934.762-3.797 2.074-5.028-1.554-1.992-3.148-3.613-5.304-3.613-4.262 0-6.149 2.422-6.149 5.059 0 2.851 5.203 3.886 5.203 8.339 0 3.028-1.964 4.735-3.859 4.735-2.035 0-3.082-1.348-3.285-1.348-.211 0-1.258 1.348-3.293 1.348-1.895 0-3.863-1.707-3.863-4.735 0-4.453 5.207-5.488 5.207-8.339 0-2.637-1.879-5.059-6.145-5.059-2.16 0-3.754 1.621-5.312 3.613 1.316 1.231 2.078 3.094 2.078 5.028 0 3.058-1.903 5.617-4.547 5.617-1.227 0-2.313-.586-3.113-1.387-2.211 4.824-3.754 9.852-3.754 12.969 0 4.004 1.691 4.668 2.824 4.668 3.015 0 3.976-5.91 7.402-5.91 3.192 0 4.262 3.605 4.262 4.015 0 .254-.231.34-.512.34-6.172 0-4.844 6.516-11.972 6.516-6.653 0-9.836-4.746-9.836-9.512 0-9.98 10.558-16.914 10.558-24.785 0-3.535-2.433-4.192-4.043-4.192-.801 0-1.855.383-3.054 1.047.367.848.531 1.582.531 2.586 0 2.727-1.86 4.934-3.973 4.934-1.336 0-2.449-.703-3.269-1.836-3.579 3.965-6.602 9.09-6.602 13.711 0 2.383 1.074 2.988 1.816 2.988 1.727 0 1.778-2.324 4.102-2.324 1.73 0 2.797 2.137 2.797 3.387 0 .343-.484.226-.953.226-3.789 0-3.086 2.891-7.531 2.891-1.5 0-6.559-.813-6.559-7.969 0-10.871 13.402-14.141 10.293-22.48 5.691.828 5.621-4.707 5.726-14.629 0 0 11.082 3.75 30.735 3.75zm0 47.195c-2.711 0-4.91-2.187-4.91-4.902 0-2.703 2.199-4.903 4.91-4.903 2.703 0 4.898 2.2 4.898 4.903 0 2.715-2.195 4.902-4.898 4.902zm-2.461 29.895c0-1.184.508-2.219.91-2.793.824-1.172.699-1.817.309-2.207-.387-.391-1.036-.52-2.211.3-.578.41-1.61.918-2.789.918-2.024 0-3.024-1.328-3.024-2.461 0-1.132 1-2.461 3.024-2.461 1.179 0 2.211.508 2.789.918 1.175.821 1.824.696 2.211.305.39-.383-.18-4.445-.633-7.637-3.348-.703-4.957-3.379-4.957-4.941 0-4.023 4.301-6.348 6.832-7.695 2.523 1.347 6.824 3.672 6.824 7.695 0 1.562-1.609 4.238-4.949 4.941-.461 3.192-1.028 7.254-.641 7.637.387.391 1.035.516 2.211-.305.574-.41 1.606-.918 2.789-.918 2.02 0 3.024 1.329 3.024 2.461 0 1.133-1.004 2.461-3.024 2.461-1.183 0-2.215-.508-2.789-.918-1.176-.82-1.824-.691-2.211-.3-.387.39-.519 1.035.309 2.207.402.574.918 1.609.918 2.793 0 2.019-1.328 3.027-2.461 3.027-1.141 0-2.461-1.008-2.461-3.027zm98.723-78.653c-1-4.687-5.153-5.344-7.696-2.5.211 2.246 2.461 2.774 7.696 2.5zm30.32-26.457c0 .481-.207.403-.406.305-4.016-2.012-6.192 2.305-5.215 6.758.547 2.48 2.722 9.207-2.735 14.668-5.367-3.067-8.976 1.972-8.058 4.414.25.644.672.75.672-.078 0-1.711 1.722-2.95 2.965-2.95 2.164 0 6.109 2.422 6.441 6.094-5.547 3.641-14.91 2.168-16.777-4.687-.235-.86-1.27-.782-1.2.078.036.586.278 4.648 4.325 6.699 3.652 1.836 2.324 4.559 1.359 5.527-.398.399-1.145.321-.902-.09 1.41-2.429-1.606-3.523-5.778-3.007-8.828 1.183-11.738-2.098-12.207-4.375-1.933-.496-9.437-4.707-9.437-6.27 0-.476.437-1.59 1.144-1.922 0 0-.176-3.183 2.168-5.273 9.387 5.672 11.992.371 11.028-3.379 0 0-1.661-1.359-7.989-1.367 0 0 .301-2.285.84-2.93 0 0-1.445-1.816-.422-3.496 0 0 3.242 2.441 8.86 2.187 0 0 3.582-5.468-9.739-8.039-13.347-2.558-17.578-15.175-17.578-22.078 0-.332.145-.527.453-.469 10.793 2.012 15.739-9.179 29.746-7.91-1.218 3.289.125 6.739.125 6.739 1.102-2.969 3.75-4.903 5.633-5.911 4.973 1.114 8.246 3.489 8.996 4.915 0 0-5.285 4.375-1.836 12.265 0 0 3.321-5.265 10.176-2.402.613.262.473.664.067.801-9.286 2.996-3.243 10.839-2.676 11.621 4.308-2.403 7.957.761 7.957 3.562zm-52.684 13.02c-2.734 0-5.32 1.211-5.82 3.32-.109.535-.57.723-.781-.07-1.297-4.727 2.039-6.942 5.304-6.942 3.598 0 5.621 2.578 10.743 3.457 2.253.379 3.796.028 3.796.711 0 .684-3.312.696-3.796.696-5.332 0-6.059-1.172-9.446-1.172zm-162.47 10.937c-2.551-2.844-6.7-2.187-7.696 2.5 5.235.274 7.485-.254 7.696-2.5zm-30.059-27.519c.559-.782 6.605-8.625-2.676-11.621-.41-.137-.555-.539.067-.801 6.855-2.863 10.175 2.402 10.175 2.402 3.45-7.89-1.84-12.265-1.84-12.265.747-1.426 4.024-3.801 9-4.915 1.879 1.008 4.532 2.942 5.633 5.911 0 0 1.344-3.45.121-6.739 14.004-1.269 18.957 9.922 29.743 7.91.312-.058.461.137.461.469 0 6.903-4.231 19.52-17.583 22.078-13.316 2.571-9.734 8.039-9.734 8.039 5.617.254 8.859-2.187 8.859-2.187 1.024 1.68-.421 3.496-.421 3.496.539.645.836 2.93.836 2.93-6.325.008-7.985 1.367-7.985 1.367-.972 3.75 1.637 9.051 11.028 3.379 2.343 2.09 2.167 5.273 2.167 5.273.708.332 1.149 1.446 1.149 1.922 0 1.563-7.512 5.774-9.441 6.27-.469 2.277-3.379 5.558-12.208 4.375-4.171-.516-7.187.578-5.781 3.007.239.411-.508.489-.898.09-.965-.968-2.297-3.691 1.351-5.527 4.051-2.051 4.297-6.113 4.328-6.699.071-.86-.964-.938-1.195-.078-1.867 6.855-11.23 8.328-16.777 4.687.328-3.672 4.269-6.094 6.433-6.094 1.247 0 2.969 1.239 2.969 2.95 0 .828.426.722.668.078.918-2.442-2.687-7.481-8.055-4.414-5.453-5.461-3.277-12.188-2.73-14.668.977-4.453-1.199-8.77-5.215-6.758-.203.098-.41.176-.41-.305 0-2.801 3.652-5.965 7.961-3.562zm35.277 17.754c-.484 0-3.801-.012-3.801-.696 0-.683 1.543-.332 3.801-.711 5.125-.879 7.149-3.457 10.746-3.457 3.27 0 6.602 2.215 5.305 6.942-.215.793-.676.605-.781.07-.5-2.109-3.09-3.32-5.824-3.32-3.387 0-4.114 1.172-9.446 1.172zm118.64-30.645h-6.406v17.773h6.406zm-28.891-78.32h-6.402v17.761h6.402v-17.761" fill="#fff"/><path d="m633.63 446.32c4.258 1.27 6.437 3.336 6.785 6.785l5.066 58.801-6.675 1.953v3.336c5.175.688 11.504.805 15.644.805h4.145l18.062-55.805h.117l17.485 55.805h4.945c4.149 0 9.32-.117 13.922-.805v-3.336l-7.133-1.73 5.063-63.27 6.675-1.269v-2.531c-2.765-1.27-6.675-1.961-11.164-1.961-5.293 0-8.628.23-12.656 1.148v2.192c4.836 1.152 7.024 4.023 6.793 8.738l-2.875 52.234h-.234l-20.481-63.844-4.484-.578-20.711 64.309-.109-.109-3.571-57.649 7.481-1.949v-2.531c-4.953-1.493-7.711-1.961-13.235-1.961-2.644 0-5.98.468-8.855 1.148v2.074" fill="#231f20"/><path d="m731.91 516.16c0 3.567 2.528 6.789 6.559 6.789 3.219 0 5.98-2.422 5.98-6.219 0-4.027-2.761-7.128-6.441-7.128-3.453 0-6.098 2.761-6.098 6.558zm-4.836-69.949c3.114 1.144 6.102 3.445 6.102 6.211v38.887l-7.363 3.105v2.41c5.179 1.496 10.464 2.192 13.691 2.192h3.68l-.579-6.211v-43.723l6.45-1.727v-2.179c-3.914-1.387-7.485-1.961-13.348-1.961-2.644 0-5.984.23-8.633 1.031v1.965" fill="#231f20"/><path d="m758.36 446.21c2.997 1.144 6.102 3.445 6.102 6.211v38.887l-7.48 3.105v2.531c5.293 1.493 10.468 2.071 13.808 2.071h2.754v-6.211c3.918 3.914 10.363 6.441 17.031 6.441 9.551 0 16.106-6.101 16.106-17.945v-32.219l5.984-1.727v-2.179c-3.105-1.27-7.129-1.961-12.078-1.961-2.414 0-5.176.23-7.48 1.031v1.965c2.878 1.262 4.14 3.445 4.14 7.59v21.972c0 11.278-4.719 15.536-11.504 15.536-4.718 0-9.316-1.614-11.847-3.567v-38.66l6.437-1.727v-2.179c-3.906-1.387-7.59-1.961-13.34-1.961-2.765 0-5.988.23-8.633 1.031v1.965" fill="#231f20"/><path d="m826.76 516.16c0 3.567 2.531 6.789 6.554 6.789 3.223 0 5.985-2.422 5.985-6.219 0-4.027-2.762-7.128-6.446-7.128-3.457 0-6.093 2.761-6.093 6.558zm-4.832-69.949c3.105 1.144 6.093 3.445 6.093 6.211v38.887l-7.363 3.105v2.41c5.176 1.496 10.469 2.192 13.692 2.192h3.679l-.574-6.211v-43.723l6.445-1.727v-2.179c-3.918-1.387-7.48-1.961-13.351-1.961-2.645 0-5.977.23-8.621 1.031v1.965" fill="#231f20"/><path d="m853.18 456.68c5.175-4.832 10.125-7.254 16.218-7.254 6.446 0 9.786 3.113 9.786 7.137 0 4.023-2.305 6.55-9.903 9.777l-5.75 2.422c-6.672 2.871-10.351 7.703-10.351 14.265 0 9.082 8.054 16.907 20.019 16.907 9.199 0 12.879-2.754 12.879-7.129 0-1.731-.223-3.227-.566-4.836-3.68 2.527-8.75 4.375-13.125 4.375-7.364 0-10.809-3.223-10.809-7.141 0-4.137 2.07-6.433 8.973-9.082l6.211-2.422c8.281-3.219 11.398-7.476 11.398-14.265 0-8.86-8.515-16.903-21.406-16.903-10.129 0-14.609 3.211-14.609 9.434 0 1.609.339 3.445 1.035 4.715" fill="#231f20"/><path d="m901.47 475.66.351 15.293h-6.328v3.801l12.422 12.312 3.801.461-.461-10.351h15.187l-.812-6.223h-14.727l-.222-14.492c-.117-4.832-.117-9.199-.117-13.457 0-9.324 2.761-12.547 7.019-12.547 3.332 0 6.211 1.152 8.516 2.996l1.144-.461c-.461-6.785-4.484-10.242-12.422-10.242-9.211 0-13.691 4.836-13.691 15.996 0 5.52.234 11.621.34 16.914" fill="#231f20"/><path d="m966.96 476.93c0 11.277-4.832 16.679-11.621 16.679-6.328 0-13.008-7.589-13.008-16.679zm-10.703 22.898c12.422 0 19.902-8.293 19.902-21.511 0-2.192 0-4.493-.117-7.368h-33.934c0-12.886 7.481-20.371 17.02-20.371 5.645 0 11.855 1.965 16.23 4.953.227-.578.461-1.843.461-2.988 0-5.184-7.597-10.008-19.796-10.008-13.114 0-23.809 10.235-23.809 26.336 0 20.02 12.082 30.957 24.043 30.957" fill="#231f20"/><path d="m985.04 446.21c2.988 1.144 6.094 3.445 6.094 6.211v38.887l-7.481 3.105v2.531c5.293 1.493 10.469 2.071 13.809 2.071h2.763v-8.059h.12l3.22 3.574c3.11 3.332 6.21 5.059 10.12 5.059 4.03 0 5.98-1.727 5.98-4.949 0-2.18-.69-4.719-1.84-6.899-2.18 1.723-4.72 2.649-7.13 2.649-3.57 0-6.91-1.61-10.13-4.715v-36.594l7.94-1.727v-2.179c-3.91-1.387-7.7-1.961-14.266-1.961-3.332 0-6.554.23-9.199 1.031v1.965" fill="#231f20"/><path d="m1031.8 516.16c0 3.567 2.53 6.789 6.55 6.789 3.23 0 5.99-2.422 5.99-6.219 0-4.027-2.76-7.128-6.45-7.128-3.44 0-6.09 2.761-6.09 6.558zm-4.83-69.949c3.1 1.144 6.09 3.445 6.09 6.211v38.887l-7.36 3.105v2.41c5.17 1.496 10.47 2.192 13.69 2.192h3.68l-.58-6.211v-43.723l6.45-1.727v-2.179c-3.92-1.387-7.48-1.961-13.35-1.961-2.65 0-5.98.23-8.62 1.031v1.965" fill="#231f20"/><path d="m1091.1 476.93c0 11.277-4.84 16.679-11.62 16.679-6.33 0-13.01-7.589-13.01-16.679zm-10.7 22.898c12.42 0 19.9-8.293 19.9-21.511 0-2.192 0-4.493-.12-7.368h-33.93c0-12.886 7.48-20.371 17.02-20.371 5.64 0 11.85 1.965 16.23 4.953.22-.578.46-1.843.46-2.988 0-5.184-7.6-10.008-19.8-10.008-13.11 0-23.81 10.235-23.81 26.336 0 20.02 12.08 30.957 24.05 30.957" fill="#231f20"/><path d="m1129 492.92-4.72 3.328v2.766h21.98v-2.766l-6.56-2.754 12.42-36.473h.12l12.77 36.122-6.56 3.105v2.766h17.73v-2.766l-3.23-2.645-20.47-50.734-3.92-.234-19.56 50.285" fill="#231f20"/><path d="m1198.8 449.43c3.56 0 8.16 1.387 11.04 3.113v16.106c-13 0-20.02-5.411-20.02-11.622 0-4.601 3.11-7.597 8.98-7.597zm11.04 24.629v3.101c0 12.422-2.99 15.071-10.24 15.071-6.33 0-12.43-2.649-17.26-7.481-.22 1.152-.34 2.188-.34 3.457 0 7.363 5.41 11.621 18.87 11.621 11.62 0 18.52-5.871 18.52-15.418 0-2.531-.35-8.285-.46-11.625l-.35-18.64c.81-2.071 2.53-4.246 4.61-5.86-1.73-2.07-4.83-4.375-7.83-5.871-2.18 1.379-3.91 3.227-5.3 5.637-3.21-3.106-9.43-5.516-15.52-5.516-8.64 0-14.61 5.399-14.61 12.762 0 10.129 11.04 18.762 29.91 18.762" fill="#231f20"/><path d="m1232.6 446.21c2.99 1.144 6.1 3.445 6.1 6.211v38.887l-7.48 3.105v2.531c5.29 1.493 10.46 2.071 13.8 2.071h2.77v-6.211c3.9 3.914 10.35 6.441 17.02 6.441 9.55 0 16.11-6.101 16.11-17.945v-32.219l5.98-1.727v-2.179c-3.11-1.27-7.13-1.961-12.08-1.961-2.41 0-5.18.23-7.47 1.031v1.965c2.87 1.262 4.14 3.445 4.14 7.59v21.972c0 11.278-4.72 15.536-11.5 15.536-4.72 0-9.33-1.614-11.86-3.567v-38.66l6.45-1.727v-2.179c-3.92-1.387-7.6-1.961-13.35-1.961-2.76 0-5.98.23-8.63 1.031v1.965" fill="#231f20"/><path d="m1318.5 512.01-6.22 1.965v2.41c3.92 1.269 7.48 1.847 11.4 1.847 4.25 0 6.09-.121 10.58-1.039v-2.183c-3.68-1.035-4.61-3.684-3.57-7.141l13.81-47.168h.11l14.96 51.203-7.25 1.953v2.411c4.26 1.269 8.17 1.964 12.43 1.964 2.99 0 5.18-.351 7.82-1.156v-2.183c-3.1-1.157-5.07-3.223-6.56-7.942l-20.36-63.387-4.6-.351-22.55 68.797" fill="#231f20"/><path d="m1399 449.08c7.71 0 15.76 7.481 15.76 23.242 0 13.457-7.24 20.938-15.42 20.938-7.94 0-15.76-7.942-15.76-23.125 0-13.914 7.26-21.055 15.42-21.055zm1.15 50.852c14.15 0 25.08-10.579 25.08-26.575 0-18.984-13.23-30.949-26.92-30.949-13.92 0-25.2 9.778-25.2 26.574 0 18.868 12.89 30.95 27.04 30.95" fill="#231f20"/><path d="m1433.6 446.21c2.99 1.144 6.09 3.445 6.09 6.211v66.73l-7.48 3.106v2.527c5.18 1.496 10.59 2.07 13.81 2.07h3.68l-.57-6.445v-71.328l6.44-1.727v-2.179c-3.91-1.387-7.6-1.961-13.35-1.961-2.75 0-5.97.23-8.62 1.031v1.965" fill="#231f20"/><path d="m1464.6 446.21c3.1 1.144 6.21 3.445 6.21 6.211v66.73l-7.59 3.106v2.527c5.28 1.496 10.57 2.07 13.8 2.07h3.91l-.69-6.445v-46.015l6.33 5.515c6.21 5.293 11.85 13.235 11.85 18.41 2.07.696 3.79.926 6.1.926 1.73 0 3.1-.348 4.6-1.031-.23-4.953-5.18-12.774-15.65-20.254l-4.02-2.871 17.71-21.516c3.23-3.918 6.1-5.527 8.52-5.527v-2.41c-2.53-1.731-5.18-2.422-8.52-2.422-3.22 0-5.98 1.387-8.16 4.375l-18.76 24.734v-23.242l5.99-1.836v-2.187c-4.26-1.387-7.6-1.844-13-1.844-2.65 0-5.99.23-8.63 1.031v1.965" fill="#231f20"/><path d="m1522.1 456.68c5.18-4.832 10.13-7.254 16.22-7.254 6.45 0 9.79 3.113 9.79 7.137 0 4.023-2.31 6.55-9.9 9.777l-5.75 2.422c-6.67 2.871-10.36 7.703-10.36 14.265 0 9.082 8.06 16.907 20.02 16.907 9.2 0 12.88-2.754 12.88-7.129 0-1.731-.22-3.227-.56-4.836-3.68 2.527-8.75 4.375-13.13 4.375-7.36 0-10.81-3.223-10.81-7.141 0-4.137 2.07-6.433 8.98-9.082l6.21-2.422c8.28-3.219 11.39-7.476 11.39-14.265 0-8.86-8.51-16.903-21.4-16.903-10.13 0-14.61 3.211-14.61 9.434 0 1.609.34 3.445 1.03 4.715" fill="#231f20"/><path d="m1598.5 479.8c0 9.66-5.41 14.265-11.5 14.265-6.57 0-12.08-6.218-12.08-16.226 0-9.66 5.4-14.375 11.04-14.375 7.01 0 12.54 5.058 12.54 16.336zm-12.08-57.766c10.93 0 18.17 5.41 18.17 10.941 0 4.481-2.98 7.008-8.51 7.008h-18.52c-3.34-1.492-5.87-5.293-5.87-9.199 0-4.715 5.06-8.75 14.73-8.75zm-11.28 39.008v.113c-5.17 2.074-10.35 8.059-10.35 15.996 0 12.883 10.35 22.778 22.89 22.778 4.72 0 10.47-1.954 12.43-3.789 2.07 1.953 6.44 3.679 10.12 3.679 1.96 0 3.8-.351 4.95-.691l-.8-7.602c-3.68.813-7.83 1.274-12.32 1.274v-.117c3.8-2.872 6.56-7.825 6.56-12.54 0-13.351-10.93-22.433-23.35-22.433-2.53 0-5.18.574-7.14 1.379-1.72-1.035-3.68-3.449-3.68-5.52 0-3.457 2.88-5.293 7.36-5.293l16.11.11c9.66.117 15.07-4.368 15.07-12.883 0-10.93-12.08-20.137-28.06-20.137-14.51 0-21.99 5.867-21.99 13.469 0 6.094 4.72 11.043 10.94 12.762v.117c-4.26 1.496-6.8 4.601-6.8 8.976s3.69 8.856 8.06 10.352" fill="#231f20"/><path d="m1653.4 476.93c0 11.277-4.83 16.679-11.62 16.679-6.32 0-13-7.589-13-16.679zm-10.7 22.898c12.42 0 19.9-8.293 19.9-21.511 0-2.192 0-4.493-.11-7.368h-33.94c0-12.886 7.48-20.371 17.02-20.371 5.65 0 11.86 1.965 16.23 4.953.23-.578.46-1.843.46-2.988 0-5.184-7.6-10.008-19.79-10.008-13.12 0-23.81 10.235-23.81 26.336 0 20.02 12.08 30.957 24.04 30.957" fill="#231f20"/><path d="m1697.6 491.99h-13.45c-4.49 0-7.25-1.953-8.29-4.941l-1.03-2.879h-3.46l1.27 14.383 36.82-.117.92-2.071-27.96-45.672h14.15c5.98 0 8.17 1.493 9.55 4.375l1.84 3.789h3.11l-1.61-14.613h-39.23l-.93 1.731 28.3 46.015" fill="#231f20"/><path d="m1744 449.08c7.7 0 15.76 7.481 15.76 23.242 0 13.457-7.25 20.938-15.42 20.938-7.94 0-15.76-7.942-15.76-23.125 0-13.914 7.26-21.055 15.42-21.055zm1.15 50.852c14.15 0 25.08-10.579 25.08-26.575 0-18.984-13.23-30.949-26.92-30.949-13.92 0-25.2 9.778-25.2 26.574 0 18.868 12.89 30.95 27.04 30.95" fill="#231f20"/><path d="m1778.9 446.21c2.99 1.144 6.09 3.445 6.09 6.211v38.887l-7.48 3.105v2.531c5.3 1.493 10.47 2.071 13.81 2.071h2.77v-6.211c3.9 3.914 10.35 6.441 17.02 6.441 9.55 0 16.11-6.101 16.11-17.945v-32.219l5.98-1.727v-2.179c-3.11-1.27-7.13-1.961-12.08-1.961-2.41 0-5.18.23-7.47 1.031v1.965c2.87 1.262 4.14 3.445 4.14 7.59v21.972c0 11.278-4.72 15.536-11.51 15.536-4.71 0-9.32-1.614-11.85-3.567v-38.66l6.44-1.727v-2.179c-3.91-1.387-7.59-1.961-13.35-1.961-2.75 0-5.97.23-8.62 1.031v1.965" fill="#231f20"/><path d="m1876.1 453.91v38.078c-1.95.696-5.29 1.27-8.4 1.27-9.77 0-17.14-7.703-17.14-23.699 0-12.54 6.56-19.329 13.8-19.329 4.38 0 9.09 1.496 11.74 3.68zm-8.06 45.793c2.77 0 6.11-.352 7.94-.809v20.254l-7.82 3.106v2.527c5.29 1.496 10.93 2.07 14.27 2.07h3.68l-.69-6.445v-65.918c.81-2.304 2.18-4.715 4.37-6.679-2.3-2.071-4.83-3.68-8.06-5.403-2.29 1.836-4.36 4.485-5.51 6.906-3.68-3.796-10.01-6.562-14.73-6.562-11.62 0-20.94 9.668-20.94 24.973 0 20.703 12.54 31.98 27.49 31.98" fill="#231f20"/><path d="m1899.7 446.21c3.11 1.144 6.1 3.445 6.1 6.211v66.73l-7.48 3.106v2.527c5.17 1.496 9.9 2.07 13.8 2.07h3.69l-.58-6.445v-27.488c4.14 4.023 9.43 6.324 16.68 6.324 9.79 0 16.11-6.101 16.11-17.945v-32.219l5.98-1.727v-2.179c-3.21-1.27-7.25-1.961-12.19-1.961-2.3 0-5.17.23-7.36 1.031v1.965c2.75 1.262 4.14 3.445 4.14 7.59v21.972c0 11.278-4.6 15.536-11.74 15.536-4.48 0-8.97-1.614-11.62-3.567v-38.66l6.45-1.727v-2.179c-3.92-1.387-7.48-1.961-13.35-1.961-2.65 0-5.98.23-8.63 1.031v1.965" fill="#231f20"/><path d="m1996 476.93c0 11.277-4.83 16.679-11.62 16.679-6.33 0-13.01-7.589-13.01-16.679zm-10.7 22.898c12.42 0 19.9-8.293 19.9-21.511 0-2.192 0-4.493-.12-7.368h-33.93c0-12.886 7.48-20.371 17.03-20.371 5.63 0 11.84 1.965 16.22 4.953.22-.578.46-1.843.46-2.988 0-5.184-7.6-10.008-19.8-10.008-13.11 0-23.81 10.235-23.81 26.336 0 20.02 12.08 30.957 24.05 30.957" fill="#231f20"/><path d="m2018.9 516.16c0 3.567 2.53 6.789 6.56 6.789 3.22 0 5.98-2.422 5.98-6.219 0-4.027-2.76-7.128-6.44-7.128-3.45 0-6.1 2.761-6.1 6.558zm-4.83-69.949c3.1 1.144 6.09 3.445 6.09 6.211v38.887l-7.36 3.105v2.41c5.17 1.496 10.47 2.192 13.69 2.192h3.68l-.57-6.211v-43.723l6.44-1.727v-2.179c-3.92-1.387-7.48-1.961-13.35-1.961-2.65 0-5.98.23-8.62 1.031v1.965" fill="#231f20"/><path d="m2078.9 453.91v38.078c-1.95.696-5.29 1.27-8.4 1.27-9.77 0-17.14-7.703-17.14-23.699 0-12.54 6.56-19.329 13.8-19.329 4.38 0 9.09 1.496 11.74 3.68zm-8.06 45.793c2.77 0 6.11-.352 7.94-.809v20.254l-7.82 3.106v2.527c5.29 1.496 10.93 2.07 14.27 2.07h3.68l-.69-6.445v-65.918c.81-2.304 2.19-4.715 4.37-6.679-2.3-2.071-4.83-3.68-8.05-5.403-2.3 1.836-4.37 4.485-5.52 6.906-3.68-3.796-10.01-6.562-14.73-6.562-11.62 0-20.94 9.668-20.94 24.973 0 20.703 12.54 31.98 27.49 31.98" fill="#231f20"/><path d="m2112.2 456.78c3.57 0 6.21-2.527 6.21-6.551 0-10.703-8.75-19.785-13.57-21.171l-3.12.808c4.73 4.945 7.14 10.117 7.14 16.801l-4.02 5.058c1.84 2.879 4.82 5.055 7.36 5.055" fill="#231f20"/><path d="m635.7 381.91-6.328 1.961v2.414c3.793 1.27 8.051 1.953 11.734 1.953 3.68 0 6.672-.109 10.239-1.039v-2.183c-3.567-.801-4.602-2.871-3.567-6.555l12.539-46.367h.118l12.195 49.816-6.098 1.844v2.531c4.254 1.27 8.172 1.844 12.539 1.844 3.336 0 7.02-.352 9.321-1.152v-2.188c-2.301-.808-2.993-2.644-2.184-5.984l11.156-46.594h.117l12.657 49.59-7.024 2.18v2.421c4.258 1.258 8.172 1.836 12.086 1.836 3.106 0 5.176-.343 7.477-1.144v-2.078c-2.992-1.953-4.602-4.024-5.75-8.047l-18.867-63.281-4.489-.461-15.992 60.742h-.117l-15.879-60.281-4.371-.461-21.512 68.683" fill="#231f20"/><path d="m758.75 346.93c0 11.269-4.832 16.679-11.625 16.679-6.324 0-12.996-7.586-12.996-16.679zm-10.703 22.89c12.422 0 19.902-8.281 19.902-21.511 0-2.188 0-4.485-.117-7.368h-33.934c0-12.879 7.477-20.359 17.028-20.359 5.636 0 11.847 1.953 16.222 4.949.227-.574.461-1.844.461-2.996 0-5.176-7.597-10.008-19.793-10.008-13.113 0-23.816 10.242-23.816 26.348 0 20.019 12.082 30.945 24.047 30.945" fill="#231f20"/><path d="m776.52 316.21c2.988 1.152 6.093 3.457 6.093 6.211v66.738l-7.48 3.106v2.531c5.183 1.492 10.586 2.066 13.808 2.066h3.68l-.574-6.441v-71.328l6.445-1.731v-2.187c-3.918-1.375-7.597-1.953-13.351-1.953-2.754 0-5.977.234-8.621 1.035v1.953" fill="#231f20"/><path d="m834.16 362h-13.457c-4.484 0-7.246-1.953-8.281-4.941l-1.035-2.883h-3.457l1.269 14.386 36.817-.121.918-2.066-27.961-45.676h14.152c5.984 0 8.172 1.492 9.551 4.367l1.844 3.797h3.105l-1.609-14.609h-39.231l-.926 1.73 28.301 46.016" fill="#231f20"/><path d="m860.75 386.16c0 3.567 2.531 6.789 6.555 6.789 3.222 0 5.984-2.414 5.984-6.211 0-4.023-2.762-7.129-6.445-7.129-3.457 0-6.094 2.754-6.094 6.551zm-4.832-69.949c3.106 1.152 6.094 3.457 6.094 6.211v38.898l-7.363 3.106v2.41c5.175 1.492 10.468 2.187 13.691 2.187h3.68l-.575-6.21v-43.719l6.446-1.731v-2.187c-3.918-1.375-7.481-1.953-13.352-1.953-2.644 0-5.976.234-8.621 1.035v1.953" fill="#231f20"/><path d="m889.78 386.16c0 3.567 2.539 6.789 6.563 6.789 3.222 0 5.984-2.414 5.984-6.211 0-4.023-2.762-7.129-6.445-7.129-3.457 0-6.102 2.754-6.102 6.551zm1.27-24.84-7.363 3.106v2.41c5.292 1.492 10.468 2.187 13.808 2.187h3.68l-.692-6.445v-51.66c0-18.867-5.636-24.734-13-24.734-2.527 0-5.066.925-6.445 2.761v1.848c5.059 0 10.012 5.75 10.012 17.48v53.047" fill="#231f20"/><path d="m913.55 316.21c2.988 1.152 6.094 3.457 6.094 6.211v38.898l-7.481 3.106v2.527c5.293 1.492 10.469 2.07 13.809 2.07h2.761v-6.21c3.907 3.906 10.352 6.437 17.024 6.437 9.551 0 16.113-6.094 16.113-17.941v-32.215l5.977-1.731v-2.187c-3.106-1.258-7.129-1.953-12.082-1.953-2.411 0-5.176.234-7.469 1.035v1.953c2.871 1.269 4.141 3.457 4.141 7.598v21.972c0 11.282-4.719 15.539-11.504 15.539-4.719 0-9.329-1.613-11.856-3.578v-38.648l6.445-1.731v-2.187c-3.918-1.375-7.597-1.953-13.351-1.953-2.754 0-5.977.234-8.621 1.035v1.953" fill="#231f20"/><path d="m1033 346.93c0 11.269-4.83 16.679-11.62 16.679-6.33 0-13.01-7.586-13.01-16.679zm-10.7 22.89c12.42 0 19.9-8.281 19.9-21.511 0-2.188 0-4.485-.12-7.368h-33.93c0-12.879 7.48-20.359 17.03-20.359 5.63 0 11.85 1.953 16.22 4.949.23-.574.46-1.844.46-2.996 0-5.176-7.6-10.008-19.8-10.008-13.11 0-23.803 10.242-23.803 26.348 0 20.019 12.083 30.945 24.043 30.945" fill="#231f20"/><path d="m1051.1 316.21c2.99 1.152 6.09 3.457 6.09 6.211v38.898l-7.48 3.106v2.527c5.29 1.492 10.47 2.07 13.81 2.07h2.76v-6.21c3.91 3.906 10.36 6.437 17.03 6.437 9.55 0 16.11-6.094 16.11-17.941v-32.215l5.98-1.731v-2.187c-3.11-1.258-7.13-1.953-12.09-1.953-2.41 0-5.17.234-7.47 1.035v1.953c2.88 1.269 4.14 3.457 4.14 7.598v21.972c0 11.282-4.71 15.539-11.5 15.539-4.72 0-9.33-1.613-11.85-3.578v-38.648l6.44-1.731v-2.187c-3.92-1.375-7.6-1.953-13.35-1.953-2.75 0-5.98.234-8.62 1.035v1.953" fill="#231f20"/><path d="m1135.5 331.86h3.34l.8-2.879c1.73-6.328 5.41-9.089 14.16-9.089 8.51 0 15.07 4.949 15.07 11.968 0 4.485-2.99 8.742-10.01 12.883l-10.93 6.445c-7.02 4.141-10.46 9.895-10.46 17.493 0 11.386 10.58 20.125 24.04 20.125 7.02 0 11.5-.801 16.1-2.649l-1.03-16.219h-3.33l-.47 2.305c-1.5 7.012-4.72 9.317-12.42 9.317-8.29 0-13.58-5.176-13.58-10.809 0-4.719 2.41-8.399 8.52-11.621l11.38-6.223c8.06-4.25 12.08-10.351 12.08-17.715 0-12.082-11.73-22.429-25.53-22.429-7.26 0-12.78.691-17.73 2.41v16.687" fill="#231f20"/><path d="m1210.2 319.43c10.24 0 18.3 7.019 18.3 23.359 0 12.656-7.25 19.094-15.08 19.094-4.14 0-7.7-.918-10.58-2.649v-38.996c1.96-.574 4.61-.808 7.36-.808zm-7.25-27.61 7.6-1.609v-2.305c-3.92-1.269-8.51-1.836-14.5-1.836-2.76 0-5.98.227-8.62 1.035v1.954c2.98 1.035 6.09 3.339 6.09 6.21v66.047l-7.48 3.106v2.527c5.29 1.492 10.48 2.07 13.81 2.07h2.76v-5.293c3.68 3.45 9.55 5.872 14.85 5.872 11.62 0 20.93-8.516 20.93-24.161 0-21.41-13.35-32.453-28.07-32.453-2.53 0-5.52.578-7.37 1.387v-22.551" fill="#231f20"/><path d="m1273.8 319.09c7.71 0 15.76 7.476 15.76 23.242 0 13.457-7.24 20.937-15.42 20.937-7.94 0-15.76-7.941-15.76-23.125 0-13.925 7.26-21.054 15.42-21.054zm1.15 50.847c14.16 0 25.08-10.586 25.08-26.574 0-18.98-13.23-30.945-26.92-30.945-13.92 0-25.2 9.773-25.2 26.57 0 18.871 12.89 30.949 27.04 30.949" fill="#231f20"/><path d="m1308.8 316.21c2.99 1.152 6.1 3.457 6.1 6.211v38.898l-7.48 3.106v2.527c5.29 1.492 10.47 2.07 13.81 2.07h2.76v-8.054h.12l3.22 3.562c3.11 3.34 6.21 5.071 10.12 5.071 4.03 0 5.98-1.731 5.98-4.954 0-2.187-.69-4.714-1.84-6.906-2.18 1.731-4.72 2.649-7.13 2.649-3.57 0-6.91-1.61-10.13-4.715v-36.582l7.94-1.731v-2.187c-3.91-1.375-7.7-1.953-14.27-1.953-3.33 0-6.55.234-9.2 1.035v1.953" fill="#231f20"/><path d="m1355.6 345.66.35 15.305h-6.33v3.797l12.43 12.312 3.79.461-.45-10.359h15.18l-.81-6.211h-14.73l-.22-14.492c-.12-4.836-.12-9.211-.12-13.469 0-9.317 2.77-12.539 7.02-12.539 3.33 0 6.22 1.152 8.52 2.988l1.14-.457c-.46-6.789-4.48-10.234-12.42-10.234-9.21 0-13.69 4.832-13.69 15.984 0 5.527.23 11.621.34 16.914" fill="#231f20"/></g></g></svg>
